/* XPM */
static char *pokerth[] = {
/* columns rows colors chars-per-pixel */
"32 32 188 2",
"   c #7DD512A70FC1",
".  c #8B5A1A8C1520",
"X  c #9FA116DA1273",
"o  c #950C1AD31501",
"O  c #9CB8186714BC",
"+  c #9ABD1D621863",
"@  c #A2151B941689",
"#  c #A6811F8A1A5C",
"$  c #A86C1E1E1941",
"%  c #9D4522911CFA",
"&  c #A4A723771D20",
"*  c #AAB223481CB7",
"=  c #B28F22DB1CC8",
"-  c #BE8423D91CDF",
";  c #97672BDE27F2",
":  c #AB82259120E4",
">  c #A3D82B4D2544",
",  c #B02C28CA21ED",
"<  c #B65125F620BF",
"1  c #BD5B26782214",
"2  c #B78D27BB23C8",
"3  c #BCB5297223BF",
"4  c #BCC433F63034",
"5  c #C081262A1DCC",
"6  c #C0C9266B2208",
"7  c #C1422B572436",
"8  c #C1852DDA296E",
"9  c #C43D335224A1",
"0  c #C6D73BCD2320",
"q  c #C33634AF2CE7",
"w  c #C62F3C5428AD",
"e  c #C38C378330AB",
"r  c #C47B3B5A33FB",
"t  c #BD23423D3E1D",
"y  c #C91141711EE9",
"u  c #CB834A121F7C",
"i  c #CF4D54F61DAE",
"p  c #D69B6C7C1ED2",
"a  c #D80070C51CD4",
"s  c #D91C745A1DD0",
"d  c #DBE57D7D1D67",
"f  c #C90043232384",
"g  c #CBEC4BD92271",
"h  c #C80F42C62A18",
"j  c #C8BF475C2F76",
"k  c #CE8053EF2194",
"l  c #D02658002173",
"z  c #CDC555A82B5D",
"x  c #D1635CEF20BF",
"c  c #C61943FF3D45",
"v  c #CB8F509431DA",
"b  c #D41064B02022",
"n  c #D53268EE2099",
"m  c #D2D06C593B88",
"M  c #D5A871993424",
"N  c #A546476041B1",
"B  c #A9264D9746FB",
"V  c #B70153B44E10",
"C  c #AFC051A950A8",
"Z  c #A4A15DB85887",
"A  c #B8507AB8772E",
"S  c #C62846AA42C0",
"D  c #C7604AFF449A",
"F  c #C7D84E0D4878",
"G  c #C8554ECA4817",
"H  c #CCF45B8C413F",
"J  c #C8EC53374C9A",
"K  c #CBDD597D4BEE",
"L  c #CA725AFA54FD",
"P  c #CAD05DDA5866",
"I  c #D2F3703F457B",
"U  c #D57879694795",
"Y  c #CD7B659E5783",
"T  c #CBE662B35CE9",
"R  c #CECC6B10594A",
"E  c #D25575F95EF4",
"W  c #CCB966A560FC",
"Q  c #CD486A1B6479",
"!  c #C7596F0B6DF5",
"~  c #CE306F2669D2",
"^  c #CEF571FF6C94",
"/  c #D23D79D86390",
"(  c #CFCB768E71C7",
")  c #CF9B78D7740C",
"_  c #D0937B3A7610",
"`  c #D0F77E0279B2",
"'  c #DE1F84241CC1",
"]  c #E01089BC1C94",
"[  c #E0B78C181B12",
"{  c #E3BC955E1A9B",
"}  c #E60B9CD41A7E",
"|  c #E842A27F16AC",
" . c #EA35A816153D",
".. c #EB34ABBC163D",
"X. c #E76BA1871979",
"o. c #E94CA6F519C2",
"O. c #EB4EACDD1948",
"+. c #ED8DB3021616",
"@. c #F013BAC11582",
"#. c #ED17B36F19D5",
"$. c #EF68B9AB1825",
"%. c #F135BEA215C0",
"&. c #F12BBEEF17B5",
"*. c #DDF48D6E3677",
"=. c #DCD68BE03E3B",
"-. c #E17B96523052",
";. c #E3989E663374",
":. c #EED5BB0320D0",
">. c #F2E5C42915F8",
",. c #F484C9291683",
"<. c #F2E9C58A19EF",
"1. c #F350C89B1E96",
"2. c #EFB2C08B2649",
"3. c #F266CB5C2D73",
"4. c #F035C5A332D2",
"5. c #EF25C7CA3EC6",
"6. c #F1C6CD343624",
"7. c #AB3C83C67E35",
"8. c #BD4181477E6C",
"9. c #DF9DA00C5F8F",
"0. c #D8CF8C936247",
"q. c #D4E485736CED",
"w. c #D1DE82297D61",
"e. c #EFCCCED04CAB",
"r. c #EDBACD7259EF",
"t. c #ED00D25F6B80",
"y. c #E9D7CB6C7365",
"u. c #EAD7D10D7B97",
"i. c #9BBA919D8B66",
"p. c #A3F297DF943E",
"a. c #BE2894339296",
"s. c #B325AA98A5AD",
"d. c #BD01B91BB5E2",
"f. c #B6E8B77CB9D9",
"g. c #D288864782A3",
"h. c #D34D89D68561",
"j. c #D3F08DEB8AD8",
"k. c #CF9E9084900A",
"l. c #D4F292918E79",
"z. c #C12697BB9825",
"x. c #D0209F039D2E",
"c. c #D4AF94DF9151",
"v. c #D6C49AC1950C",
"b. c #D6FF9DFF9AF0",
"n. c #D7CAA1A09E33",
"m. c #DC33AF299E01",
"M. c #E123BCE99BC9",
"N. c #C6D1A869A45E",
"B. c #C940AF9BAC6B",
"V. c #D8AAA5E6A2C5",
"C. c #D93CA8A9A56B",
"Z. c #D3BBAB88ABB9",
"A. c #DA60AEC4ABC2",
"S. c #DADEB1AFAEC2",
"D. c #DB9CB5DAB312",
"F. c #DC50B989B713",
"G. c #DCCCBCB4BA9F",
"H. c #EA49D7599151",
"J. c #E77FD28A9D6C",
"K. c #C5ECC09CBCF2",
"L. c #DF6CC276B820",
"P. c #DDDEC13BBEE0",
"I. c #E4C0CD7BA609",
"U. c #E7EBD574A3D5",
"Y. c #E8F6DE97B5C8",
"T. c #E579D6F7BA99",
"R. c #C516C563C4D3",
"E. c #CC5CC6F1C4F4",
"W. c #CC87C96DC70E",
"Q. c #DE85C534C30D",
"!. c #DF29C8B4C6DE",
"~. c #DFA9CBE6CA85",
"^. c #D517D267D2FE",
"/. c #DD1BDCBEDDE7",
"(. c #E0B0D070CF41",
"). c #E6D4E03CCA5B",
"_. c #E14CD412D284",
"`. c #E22BD879D739",
"'. c #E31FDDAADC7B",
"]. c #E6A1E0D6CF2B",
"[. c #E5BCE0DDD2B3",
"{. c #E457E18EDDED",
"}. c #DFABDF6FE204",
"|. c #DFE0E118E20E",
" X c #E3FBE4C5E489",
".X c #E52EE8AFE7D0",
"XX c #E56CEA3DE98A",
"oX c None",
/* pixels */
"oXoXoXoXoXoXoXoXoXoXoXoXoXoXoXoXoXoXoXoXoXoXoXoXoXoXoXoXoXoXoXoX",
"oXoXoXoXoXoXoXoXoXoXoXoXoXoXoXoXoXoXoXoXoXoXoXoXoXoXoXoXoXoXoXoX",
"oXoXoXoXoXoXoXoXoXoXoXoXoXf.C 6 7 7 : % oXoXoXoXoXoXoXoXoXoXoXoX",
"oXoXoXoXoXoXoXoXoX* k. X{.).0.i x l g 0 7 4 z.oXoXoXoXoXoXoXoXoX",
"oXoXoXoXoXoXoX& 2 7 I u.e.3.<.>.>.>.&.#.{ =.T. X/.oXoXoXoXoXoXoX",
"oXoXoXoXoXoX3 7 l { %.%. .[ s n b p d { #.<.3.t.T.( , oXoXoXoXoX",
"oXoXoXoXoX3 0 ] >.$.] l 0 7 7 7 7 7 7 7 f n } >.2.n 7 3 oXoXoXoX",
"oXoXoXoXt g o.>.{ g 8 7 8 8 7 7 7 6 6 7 7 7 9 n +.>.d 9 3 oXoXoX",
"oXoXoX/.M.#.>.*.v.b.n.C.V.n.n._ ^ ) T J r 7 7 1 u o.>.s 7 , oXoX",
"oXoX|.[.e.>.a _ ~.^ b.XXA.~ _.b.w.'.{.!.W P c.~ D z #.&.k 1 oXoX",
"oXA G.u.,.[ q b.Q 6 V..X( 5 n.) r ~.'.W 7 c D. X(.g.n >.} K 8.oX",
"oX3 v :.+.y c h.q c ~.'.J - w.L D `.~.c 7 6 g..XV.r 9 } <.J.}.oX",
"oX7 a ,.d F w.) Q ) F.G.W J ~ G ^ .XG.q 7 6 v..Xw.5 7 p >.t. XR.",
"% 9 } >.m j.c G l.( r S ^ W L W ) b.c.Q T T S.{.w.e 7 g @.5.L.a.",
"3 0 #.../ Q - ) A.D.P g.l.v.D w.P ) c ( ( J Q ( W ) ~ w O.#.j q ",
"7 f $.| Y ` 7 w.A.g.D V.T n.Q F.P.~ G !.b.F C.n.T 8 w.R  .#.0 3 ",
"7 f $.o.w ^ ^ W L c r W j.Q F h.g.~ T ~.h.P S.C.` 5 T q.+.O.0 3 ",
"c.m.4.+.0 7 c D ^ !.D.Q T T T Q Q W L ` W J ^ j.L q g.U %.{ 9 3 ",
"R. Xr.>.x 7 7 5 W  XF.q 9 q e g. XS.L L T l.b._ Q ` P d ,.a 7 * ",
"d. XH.,.[ 7 7 5 ` .Xn.7 7 7 7 l.XXl.6 7 q G..X^ r q 0 +.$.f 1 % ",
"oXx.E O.@.k 8 T F.XXb.7 7 7 8 S. X~ 6 7 D _._.S 6 7 ' ,.y.V.V oX",
"oX> 6 n >.X.h ` A.!.~.~ 7 r ( `. X^ 7 8 )  XQ.r 7 p >.e.[./.p.oX",
"oXoX< 9 ] ,.{ 0 8 r J D 7 J n.D.P.A.c ` Q._.~.w.n %.:.I. XK.oXoX",
"oXoX+ 3 0 { ,.} k 7 1 7 7 7 8 q e r q c D S H -.>.O.k L N.oXoXoX",
"oXoXoX# 3 0 ' <.@.' g 9 7 7 7 7 7 6 7 7 f a ..>.} g 7 = B oXoXoX",
"oXoXoXoX$ 1 ^ J.e.1.&.} d b k g k x s { +.>.o.n 9 3 * @ oXoXoXoX",
"oXoXoXoXoX; B. X{.U.;...&.>.>.&.>.<.1.6.r.M 9 3 < & oXoXoXoXoXoX",
"oXoXoXoXoXoXoXs.W.Z.e 0 g b p s p 9.Y.].{.) = * o oXoXoXoXoXoXoX",
"oXoXoXoXoXoXoXoXoXZ @ = < 2 1 3 - ! ^.E.d.7.. oXoXoXoXoXoXoXoXoX",
"oXoXoXoXoXoXoXoXoXoXoXoX  O O @ X N i.i.oXoXoXoXoXoXoXoXoXoXoXoX",
"oXoXoXoXoXoXoXoXoXoXoXoXoXoXoXoXoXoXoXoXoXoXoXoXoXoXoXoXoXoXoXoX",
"oXoXoXoXoXoXoXoXoXoXoXoXoXoXoXoXoXoXoXoXoXoXoXoXoXoXoXoXoXoXoXoX"
};
